<svg width="24" height="25" viewBox="0 0 24 25" fill="none" xmlns="http://www.w3.org/2000/svg">
<g id="Component 2">
<g clip-path="url(#clip0_587_2003)">
<g id="Group">
<g id="Group_2">
<path id="Vector" fill-rule="evenodd" clip-rule="evenodd" d="M0 0.5H45.6005V2.34617H0V0.5ZM0 4.19234H45.6005V6.03852H0V4.19234ZM0 7.88469H45.6005V9.73086H0V7.88469ZM0 11.577H45.6005V13.4232H0V11.577ZM0 15.2694H45.6005V17.1155H0V15.2694ZM0 18.9617H45.6005V20.8079H0V18.9617ZM0 22.6541H45.6005V24.5002H0V22.6541Z" fill="#BD3D44"/>
<path id="Vector_2" fill-rule="evenodd" clip-rule="evenodd" d="M0 2.34617H45.6005V4.19234H0V2.34617ZM0 6.03852H45.6005V7.88469H0V6.03852ZM0 9.73086H45.6005V11.577H0V9.73086ZM0 13.4232H45.6005V15.2694H0V13.4232ZM0 17.1155H45.6005V18.9617H0V17.1155ZM0 20.8079H45.6005V22.6541H0V20.8079Z" fill="white"/>
</g>
<path id="Vector_3" fill-rule="evenodd" clip-rule="evenodd" d="M0 0.5H18.2402V13.4232H0V0.5Z" fill="#192F5D"/>
<path id="Vector_4" fill-rule="evenodd" clip-rule="evenodd" d="M1.51392 1.05387L1.69851 1.57077H2.21545L1.79081 1.88464L1.95698 2.38311L1.51392 2.06923L1.10775 2.38311L1.27392 1.88464L0.830811 1.57077H1.38473L1.51392 1.05387ZM4.56009 1.05387L4.72626 1.57077H5.26162L4.81856 1.88464L5.00315 2.38311L4.56009 2.06923L4.11703 2.38311L4.30162 1.88464L3.85856 1.57077H4.39392L4.56009 1.05387ZM7.60626 1.05387L7.77244 1.57077H8.3078L7.86473 1.88464L8.04937 2.38311L7.60626 2.06923L7.1632 2.38311L7.34779 1.88464L6.90473 1.57077H7.44014L7.60626 1.05387ZM10.634 1.05387L10.8186 1.57077H11.3355L10.9109 1.88464L11.0771 2.38311L10.634 2.06923L10.2094 2.38311L10.3755 1.88464L9.93244 1.57077H10.4863L10.634 1.05387ZM13.6802 1.05387L13.8463 1.57077H14.3817L13.9387 1.88464L14.1232 2.38311L13.6617 2.06923L13.2371 2.38311L13.4032 1.88464L12.9602 1.57077H13.4955L13.6802 1.05387ZM16.7264 1.05387L16.8925 1.57077H17.4279L16.9848 1.88464L17.1694 2.38311L16.7264 2.06923L16.2833 2.38311L16.4679 1.88464L16.0248 1.57077H16.5602L16.7264 1.05387ZM3.04622 2.34617L3.21239 2.86311H3.7478L3.30469 3.17694L3.48933 3.67541L3.04622 3.36158L2.60315 3.67541L2.78775 3.17694L2.34469 2.86311H2.88009L3.04622 2.34617ZM6.07397 2.34617L6.25856 2.86311H6.7755L6.35086 3.17694L6.51703 3.67541L6.07397 3.36158L5.64933 3.67541L5.8155 3.17694L5.37239 2.86311H5.92626L6.07397 2.34617ZM9.12014 2.34617L9.28631 2.86311H9.82167L9.37861 3.17694L9.5632 3.67541L9.12014 3.36158L8.67703 3.67541L8.86167 3.17694L8.41861 2.86311H8.95397L9.12014 2.34617ZM12.1663 2.34617L12.3325 2.86311H12.8678L12.4248 3.17694L12.6094 3.67541L12.1663 3.36158L11.7232 3.67541L11.9078 3.17694L11.4648 2.86311H12.0002L12.1663 2.34617ZM15.1941 2.34617L15.3787 2.86311H15.8771L15.4525 3.17694L15.6187 3.67541L15.1756 3.36158L14.751 3.67541L14.9171 3.17694L14.474 2.86311H15.0279L15.1941 2.34617ZM1.53234 3.63852L1.68004 4.15541H2.23392L1.79081 4.46928L1.95698 4.96775L1.51392 4.65387L1.10775 4.96775L1.27392 4.46928L0.830811 4.15541H1.38473L1.53234 3.63852ZM4.56009 3.63852L4.72626 4.15541H5.26162L4.83703 4.46928L5.00315 4.96775L4.56009 4.65387L4.13545 4.96775L4.30162 4.46928L3.85856 4.15541H4.39392L4.56009 3.63852ZM7.60626 3.63852L7.77244 4.15541H8.3078L7.86473 4.46928L8.04937 4.96775L7.60626 4.65387L7.1632 4.96775L7.34779 4.46928L6.90473 4.15541H7.44014L7.60626 3.63852ZM10.634 3.63852L10.8186 4.15541H11.3355L10.9109 4.46928L11.0771 4.96775L10.634 4.65387L10.2094 4.96775L10.3755 4.46928L9.93244 4.15541H10.4863L10.634 3.63852ZM13.6802 3.63852L13.8463 4.15541H14.3817L13.9571 4.46928L14.1232 4.96775L13.6802 4.65387L13.2555 4.96775L13.4217 4.46928L12.9787 4.15541H13.514L13.6802 3.63852ZM16.7264 3.63852L16.8925 4.15541H17.4279L16.9848 4.46928L17.1694 4.96775L16.7264 4.65387L16.2833 4.96775L16.4679 4.46928L16.0248 4.15541H16.5602L16.7264 3.63852ZM3.04622 4.93077L3.21239 5.4477H3.7478L3.30469 5.76153L3.48933 6.26L3.04622 5.94617L2.60315 6.26L2.78775 5.76153L2.34469 5.4477H2.88009L3.04622 4.93077ZM6.07397 4.93077L6.25856 5.4477H6.7755L6.35086 5.76153L6.51703 6.26L6.07397 5.94617L5.64933 6.26L5.8155 5.76153L5.37239 5.4477H5.92626L6.07397 4.93077ZM9.12014 4.93077L9.28631 5.4477H9.82167L9.39708 5.76153L9.5632 6.26L9.12014 5.94617L8.6955 6.26L8.86167 5.76153L8.41861 5.4477H8.95397L9.12014 4.93077ZM12.1663 4.93077L12.3325 5.4477H12.8678L12.4248 5.76153L12.6094 6.26005L12.1663 5.94622L11.7232 6.26005L11.9078 5.76158L11.4648 5.44775H12.0002L12.1663 4.93077ZM15.1941 4.93077L15.3787 5.4477H15.8771L15.4525 5.76153L15.6187 6.26L15.1756 5.94617L14.751 6.26L14.9171 5.76153L14.474 5.4477H15.0279L15.1941 4.93077ZM1.53234 6.22311L1.68004 6.74H2.23392L1.79081 7.05387L1.95698 7.55234L1.51392 7.23847L1.10775 7.55234L1.27392 7.05387L0.830811 6.74H1.38473L1.53234 6.22311ZM4.56009 6.22311L4.72626 6.74H5.26162L4.83703 7.05387L5.00315 7.55234L4.56009 7.23847L4.13545 7.55234L4.30162 7.05387L3.85856 6.74H4.39392L4.56009 6.22311ZM7.60626 6.22311L7.77244 6.74H8.3078L7.86473 7.05387L8.04937 7.55234L7.60626 7.23847L7.1632 7.55234L7.34779 7.05387L6.90473 6.74H7.44014L7.60626 6.22311ZM10.634 6.22311L10.8186 6.74H11.3355L10.9109 7.05387L11.0771 7.55234L10.634 7.23847L10.2094 7.55234L10.3755 7.05387L9.93244 6.74H10.4863L10.634 6.22311ZM13.6802 6.22311L13.8463 6.74H14.3817L13.9571 7.05387L14.1232 7.55234L13.6802 7.23847L13.2555 7.55234L13.4217 7.05387L12.9787 6.74H13.514L13.6802 6.22311ZM16.7264 6.22311L16.8925 6.74H17.4279L16.9848 7.05387L17.1694 7.55234L16.7264 7.23847L16.2833 7.55234L16.4679 7.05387L16.0248 6.74H16.5602L16.7264 6.22311ZM3.04622 7.51541L3.21239 8.03234H3.7478L3.30469 8.34617L3.48933 8.84464L3.04622 8.53081L2.60315 8.84464L2.78775 8.34617L2.34469 8.03234H2.88009L3.04622 7.51541ZM6.07397 7.51541L6.25856 8.03234H6.7755L6.35086 8.34617L6.51703 8.84464L6.07397 8.53081L5.64933 8.84464L5.8155 8.34617L5.37239 8.03234H5.92626L6.07397 7.51541ZM9.12014 7.51541L9.28631 8.03234H9.82167L9.39708 8.34617L9.5632 8.84464L9.12014 8.53081L8.6955 8.84464L8.86167 8.34617L8.41861 8.03234H8.95397L9.12014 7.51541ZM12.1663 7.51541L12.3325 8.03234H12.8678L12.4248 8.34617L12.6094 8.84469L12.1663 8.53086L11.7232 8.84469L11.9078 8.34622L11.4648 8.03239H12.0002L12.1663 7.51541ZM15.1941 7.51541L15.3787 8.03234H15.8771L15.4525 8.34617L15.6187 8.84464L15.1756 8.53081L14.751 8.84464L14.9171 8.34617L14.474 8.03234H15.0279L15.1941 7.51541ZM1.53234 8.80775L1.68004 9.32464H2.23392L1.79081 9.63852L1.95698 10.137L1.51392 9.82311L1.10775 10.137L1.27392 9.63852L0.830811 9.32464H1.38473L1.53234 8.80775ZM4.56009 8.80775L4.72626 9.32464H5.26162L4.83703 9.63852L5.00315 10.137L4.56009 9.82311L4.13545 10.137L4.30162 9.63852L3.85856 9.32464H4.39392L4.56009 8.80775ZM7.60626 8.80775L7.77244 9.32464H8.3078L7.86473 9.63852L8.04937 10.137L7.60626 9.82311L7.1632 10.137L7.34779 9.63852L6.90473 9.32464H7.44014L7.60626 8.80775ZM10.634 8.80775L10.8186 9.32464H11.3355L10.9109 9.63852L11.0771 10.137L10.634 9.82311L10.2094 10.137L10.3755 9.63852L9.93244 9.32464H10.4863L10.634 8.80775ZM13.6802 8.80775L13.8463 9.32464H14.3817L13.9571 9.63852L14.1232 10.137L13.6802 9.82311L13.2555 10.137L13.4217 9.63852L12.9787 9.32464H13.514L13.6802 8.80775ZM16.7264 8.80775L16.8925 9.32464H17.4279L16.9848 9.63852L17.1694 10.137L16.7264 9.82311L16.2833 10.137L16.4679 9.63852L16.0248 9.32464H16.5602L16.7264 8.80775ZM3.04622 10.1001L3.21239 10.617H3.7478L3.30469 10.9309L3.48933 11.4293L3.04622 11.1155L2.60315 11.4293L2.78775 10.9309L2.34469 10.617H2.88009L3.04622 10.1001ZM6.07397 10.1001L6.25856 10.617H6.7755L6.35086 10.9309L6.51703 11.4293L6.07397 11.1155L5.64933 11.4293L5.8155 10.9309L5.37239 10.617H5.92626L6.07397 10.1001ZM9.12014 10.1001L9.28631 10.617H9.82167L9.39708 10.9309L9.5632 11.4293L9.12014 11.1155L8.6955 11.4293L8.86167 10.9309L8.41861 10.617H8.95397L9.12014 10.1001ZM12.1663 10.1001L12.3325 10.617H12.8678L12.4248 10.9309L12.6094 11.4294L12.1663 11.1155L11.7232 11.4294L11.9078 10.9309L11.4648 10.6171H12.0002L12.1663 10.1001ZM15.1941 10.1001L15.3787 10.617H15.8771L15.4525 10.9309L15.6187 11.4293L15.1756 11.1155L14.751 11.4293L14.9171 10.9309L14.474 10.617H15.0279L15.1941 10.1001ZM1.53234 11.3924L1.68004 11.9093H2.23392L1.79081 12.2232L1.95698 12.7217L1.51392 12.4078L1.10775 12.7217L1.27392 12.2232L0.830811 11.9093H1.38473L1.53234 11.3924ZM4.56009 11.3924L4.72626 11.9093H5.26162L4.83703 12.2232L5.00315 12.7217L4.56009 12.4078L4.13545 12.7217L4.30162 12.2232L3.85856 11.9093H4.39392L4.56009 11.3924ZM7.60626 11.3924L7.77244 11.9093H8.3078L7.86473 12.2232L8.04937 12.7217L7.60626 12.4078L7.1632 12.7217L7.34779 12.2232L6.90473 11.9093H7.44014L7.60626 11.3924ZM10.634 11.3924L10.8186 11.9093H11.3355L10.9109 12.2232L11.0771 12.7217L10.634 12.4078L10.2094 12.7217L10.3755 12.2232L9.93244 11.9093H10.4863L10.634 11.3924ZM13.6802 11.3924L13.8463 11.9093H14.3817L13.9571 12.2232L14.1232 12.7217L13.6802 12.4078L13.2555 12.7217L13.4217 12.2232L12.9787 11.9093H13.514L13.6802 11.3924ZM16.7264 11.3924L16.8925 11.9093H17.4279L16.9848 12.2232L17.1694 12.7217L16.7264 12.4078L16.2833 12.7217L16.4679 12.2232L16.0248 11.9093H16.5602L16.7264 11.3924Z" fill="white"/>
</g>
</g>
</g>
<defs>
<clipPath id="clip0_587_2003">
<rect y="0.5" width="24" height="24" rx="12" fill="white"/>
</clipPath>
</defs>
</svg>
